<svg version="1.0" id="Слой_1" xmlns="http://www.w3.org/2000/svg" xmlns:xlink="http://www.w3.org/1999/xlink" x="0px" y="0px"
    viewBox="0 0 186.23 79.26" enable-background="new 0 0 186.23 79.26" xml:space="preserve" width="150px">
<g>
  <g>
    <path fill="#FFFFFF" d="M78.05,33.57c-3.11-4.97-12.43-9.95-27.35-10.57c-11.82-0.49-24.24,4.35-24.24,4.35
      c0-15.54,3.11-19.89,5.59-23.62s8.08-3.11,8.08-3.11c-8.39-2.8-13.68,4.35-16.47,9.63c-2.74,5.18-4.35,19.89-4.35,19.89
      c-4.97,1.86-9.95,6.22-9.95,6.22c-8.7-7.46-5.59-17.4-5.59-17.4C-2.44,28.91,5.64,40.1,5.64,40.1s-6.22,5.59-5.59,12.43
      c0.8,8.75,7.46,9.95,7.46,9.95c-3.11-1.86-6.53-6.53-4.97-11.81c1.11-3.77,5.59-6.84,5.59-6.84c3.73,4.35,15.54,13.05,15.54,13.05
      s0,0,3.11,6.84S39.2,79.26,44.8,79.26s8.08-3.11,8.08-3.11s-2.49,1.24-6.22,0.62c-3.73-0.62-6.84-3.73-8.7-6.22
      c-3.69-4.92-4.97-9.32-4.97-9.32S48.84,69,65.31,64.96c8.21-2.01,9.32-11.19,9.32-11.19c-1.86,3.73-7.46,9.32-21.76,6.22
      s-23.62-9.32-23.62-9.32c-2.49-6.84-1.86-17.4-1.86-17.4c3.73-2.49,21.13-4.97,31.7-3.73c10.57,1.24,16.78,5.59,18.03,9.95
      s-2.8,9.63-2.8,9.63C79.3,46,81.16,38.55,78.05,33.57z M13.1,40.1c0,0,3.73-3.11,6.84-3.73l0.62,9.32L13.1,40.1z"/>
  </g>
  <g>
    <path fill="#FFFFFF" d="M97.12,53.34h-1.29V36.32h1.29V53.34z"/>
    <path fill="#FFFFFF" d="M114.95,53.34h-1.29l-9.82-14.79v14.79h-1.29V36.32h1.29l9.82,14.74V36.32h1.29V53.34z"/>
    <path fill="#FFFFFF" d="M130.69,48.77c0,1.43-0.51,2.58-1.54,3.43c-1.03,0.85-2.43,1.28-4.19,1.28c-1.24,0-2.3-0.18-3.17-0.53
      c-0.87-0.35-1.7-0.92-2.5-1.72l0.91-0.91c0.75,0.75,1.48,1.27,2.2,1.56c0.72,0.29,1.59,0.44,2.63,0.44c1.35,0,2.42-0.31,3.2-0.93
      c0.78-0.62,1.17-1.48,1.17-2.58c0-1.07-0.31-1.86-0.93-2.39c-0.29-0.25-0.59-0.44-0.92-0.56c-0.33-0.12-0.84-0.23-1.54-0.35
      l-1.98-0.31c-1.31-0.19-2.32-0.6-3.04-1.22c-0.89-0.75-1.34-1.8-1.34-3.15c0-1.43,0.47-2.57,1.42-3.41
      c0.95-0.84,2.23-1.25,3.86-1.25c1.02,0,1.9,0.14,2.65,0.43s1.5,0.76,2.25,1.41L129,38.86c-1.1-1.05-2.48-1.58-4.13-1.58
      c-1.24,0-2.21,0.31-2.9,0.93c-0.69,0.62-1.04,1.48-1.04,2.58c0,1.02,0.29,1.77,0.86,2.25c0.59,0.49,1.4,0.82,2.44,0.98l1.98,0.31
      c0.78,0.11,1.38,0.25,1.8,0.42s0.83,0.42,1.23,0.75C130.21,46.34,130.69,47.44,130.69,48.77z"/>
    <path fill="#FFFFFF" d="M136.42,53.34h-1.29V36.32h1.29V53.34z"/>
    <path fill="#FFFFFF" d="M153.07,47.41c0,1.7-0.46,3.07-1.39,4.11c-1.18,1.31-2.67,1.96-4.47,1.96c-1.67,0-3.05-0.54-4.13-1.63
      c-0.75-0.75-1.22-1.56-1.41-2.43c-0.19-0.87-0.29-2.4-0.29-4.6c0-2.2,0.09-3.73,0.29-4.6c0.19-0.87,0.66-1.68,1.41-2.43
      c1.08-1.08,2.46-1.63,4.13-1.63c1.48,0,2.76,0.45,3.82,1.36c1.07,0.91,1.73,2.11,1.98,3.61h-1.29c-0.25-1.18-0.79-2.11-1.59-2.8
      c-0.8-0.68-1.78-1.03-2.93-1.03c-1.27,0-2.35,0.44-3.23,1.31c-0.57,0.57-0.94,1.26-1.09,2.07c-0.15,0.8-0.23,2.18-0.23,4.12
      c0,1.94,0.08,3.32,0.23,4.12c0.15,0.8,0.51,1.49,1.09,2.07c0.88,0.88,1.95,1.31,3.23,1.31c1.45,0,2.63-0.55,3.54-1.65
      c0.68-0.86,1.03-1.98,1.03-3.37v-1.53h-4.56v-1.15h5.85V47.41z"/>
    <path fill="#FFFFFF" d="M169.36,53.34h-1.29v-8.01h-8.87v8.01h-1.29V36.32h1.29v7.86h8.87v-7.86h1.29V53.34z"/>
    <path fill="#FFFFFF" d="M184.92,37.47h-5.09v15.87h-1.29V37.47h-5.07v-1.15h11.45V37.47z"/>
  </g>
</g>
</svg>
