<svg version="1.0" id="Слой_1" xmlns="http://www.w3.org/2000/svg" xmlns:xlink="http://www.w3.org/1999/xlink" x="0px" y="0px" viewBox="0 0 89.62 123.02" width="100px" enable-background="new 0 0 89.62 123.02" xml:space="preserve">
<g>
  <path fill="#FFFFFF" d="M1.83,112.3H0.54V95.28h1.29V112.3z"/>
  <path fill="#FFFFFF" d="M19.66,112.3h-1.29L8.55,97.51v14.79H7.26V95.28h1.29l9.82,14.74V95.28h1.29V112.3z"/>
  <path fill="#FFFFFF" d="M35.4,107.73c0,1.43-0.51,2.58-1.54,3.43c-1.03,0.85-2.43,1.28-4.19,1.28c-1.24,0-2.3-0.18-3.17-0.53
    c-0.87-0.35-1.7-0.92-2.5-1.72l0.91-0.91c0.75,0.75,1.48,1.27,2.2,1.56c0.72,0.29,1.59,0.44,2.63,0.44c1.35,0,2.42-0.31,3.2-0.93
    c0.78-0.62,1.17-1.48,1.17-2.58c0-1.07-0.31-1.86-0.93-2.39c-0.29-0.25-0.59-0.44-0.92-0.56c-0.33-0.12-0.84-0.23-1.54-0.35
    l-1.98-0.31c-1.31-0.19-2.32-0.6-3.04-1.22c-0.89-0.75-1.34-1.8-1.34-3.15c0-1.43,0.47-2.57,1.42-3.41
    c0.95-0.84,2.23-1.25,3.86-1.25c1.02,0,1.9,0.14,2.65,0.43s1.5,0.76,2.25,1.41l-0.84,0.84c-1.1-1.05-2.48-1.58-4.13-1.58
    c-1.24,0-2.21,0.31-2.9,0.93c-0.69,0.62-1.04,1.48-1.04,2.58c0,1.02,0.29,1.77,0.86,2.25c0.59,0.49,1.4,0.82,2.44,0.98l1.98,0.31
    c0.78,0.11,1.38,0.25,1.8,0.42s0.83,0.42,1.23,0.75C34.91,105.31,35.4,106.4,35.4,107.73z"/>
  <path fill="#FFFFFF" d="M41.13,112.3h-1.29V95.28h1.29V112.3z"/>
  <path fill="#FFFFFF" d="M57.77,106.37c0,1.7-0.46,3.07-1.39,4.11c-1.18,1.31-2.67,1.96-4.47,1.96c-1.67,0-3.05-0.54-4.13-1.63
    c-0.75-0.75-1.22-1.56-1.41-2.43c-0.19-0.87-0.29-2.4-0.29-4.6c0-2.2,0.09-3.73,0.29-4.6c0.19-0.87,0.66-1.68,1.41-2.43
    c1.08-1.08,2.46-1.63,4.13-1.63c1.48,0,2.76,0.45,3.82,1.36c1.07,0.91,1.73,2.11,1.98,3.61h-1.29c-0.25-1.18-0.79-2.11-1.59-2.8
    c-0.8-0.68-1.78-1.03-2.93-1.03c-1.27,0-2.35,0.44-3.23,1.31c-0.57,0.57-0.94,1.26-1.09,2.07c-0.15,0.8-0.23,2.18-0.23,4.12
    c0,1.94,0.08,3.32,0.23,4.12c0.15,0.8,0.51,1.49,1.09,2.07c0.88,0.88,1.95,1.31,3.23,1.31c1.45,0,2.63-0.55,3.54-1.65
    c0.68-0.86,1.03-1.98,1.03-3.37v-1.53h-4.56v-1.15h5.85V106.37z"/>
  <path fill="#FFFFFF" d="M74.07,112.3h-1.29v-8.01h-8.87v8.01h-1.29V95.28h1.29v7.86h8.87v-7.86h1.29V112.3z"/>
  <path fill="#FFFFFF" d="M89.62,96.43h-5.09v15.87h-1.29V96.43h-5.07v-1.15h11.45V96.43z"/>
</g>
<path fill="#FFFFFF" d="M43.73,1.04c-2.14-0.28-4.25,0.12-5.94,1.06c-1.7,0.94-2.97,2.38-3.93,4.01c-1.87,3.34-2.66,7.32-3.07,11.33
  c-0.26,1.98-0.3,4.09-0.45,6.15c-0.02,2.07-0.13,4.13-0.07,6.19c0.06,4.11,0.31,8.21,0.86,12.26c0.52,4.05,1.33,8.06,2.4,11.99
  c0.51,1.98,1.16,3.91,1.81,5.85c0.34,0.96,0.7,1.92,1.08,2.87c0.37,0.94,0.76,1.95,1.16,2.78c1.6,3.46,3.99,6.69,7.15,8.91
  c1.58,1.11,3.37,1.93,5.33,2.32c1.96,0.39,4.07,0.29,6.18-0.21c-1.8,1.21-3.97,1.99-6.28,2.15c-2.31,0.18-4.69-0.31-6.86-1.23
  c-4.36-1.89-7.85-5.32-10.35-9.31c-1.22-2-2.2-3.91-3.13-5.97c-0.92-2.03-1.73-4.11-2.44-6.23c-0.73-2.11-1.29-4.27-1.81-6.44
  c-0.49-2.18-0.87-4.37-1.18-6.57c-0.57-4.41-0.75-8.87-0.55-13.29c0.2-4.44,0.72-8.76,1.73-13.15c1.02-4.35,2.59-8.83,5.74-12.45
  c1.6-1.75,3.67-3.23,6-3.76l0.86-0.19l0.87-0.07c0.57-0.07,1.15,0,1.71,0.03C41.69,0.23,42.78,0.51,43.73,1.04z"/>
<path fill="#FFFFFF" d="M11.23,62.54c-2.31-0.85-4.47-2.37-6.01-4.57C3.62,55.8,3.11,52.75,3.61,50c0.57-2.77,1.79-5.2,3.29-7.36
  c0.35-0.57,0.77-1.06,1.16-1.59c0.4-0.52,0.8-1.04,1.25-1.51l1.31-1.45c0.46-0.46,0.93-0.9,1.41-1.35c3.8-3.56,8.22-6.36,12.92-8.49
  c1.18-0.5,2.38-1,3.57-1.47l3.66-1.23c1.23-0.36,2.49-0.64,3.73-0.96c1.24-0.33,2.51-0.49,3.77-0.74c1.26-0.25,2.53-0.37,3.8-0.51
  c1.27-0.13,2.54-0.3,3.79-0.33c1.26-0.05,2.5-0.13,3.76-0.15l3.78,0.01C59.86,23.04,65,23.61,70,25.29c2.49,0.8,4.95,1.94,7.17,3.53
  c2.22,1.57,4.19,3.66,5.41,6.18c0.55,1.28,1.01,2.59,1.15,3.96c0.17,1.36,0.13,2.78-0.3,4.1c-0.41,1.32-1.13,2.49-2.03,3.43
  c-0.94,0.9-2,1.63-3.16,2.05c1.92-1.53,3.18-3.7,3.29-5.85c0.07-1.07-0.12-2.13-0.47-3.14c-0.32-1.02-0.87-1.96-1.45-2.82
  c-1.25-1.7-2.95-3-4.86-3.99c-0.94-0.51-1.98-0.89-3-1.28c-1.07-0.32-2.12-0.65-3.23-0.86c-4.39-0.96-9.05-1.18-13.72-1.08
  l-3.52,0.14c-1.17,0.06-2.35,0.18-3.53,0.26c-1.19,0.06-2.33,0.22-3.48,0.35c-1.15,0.13-2.3,0.26-3.43,0.49
  c-4.56,0.73-9.03,1.91-13.29,3.6c-4.27,1.67-8.33,3.85-11.97,6.58c-1.86,1.33-3.51,2.89-5.05,4.52c-1.53,1.64-2.82,3.5-3.59,5.41
  c-0.33,0.98-0.6,2-0.58,3.04c-0.03,1.04,0.17,2.11,0.58,3.14C7.73,59.12,9.3,61.03,11.23,62.54z"/>
<path fill="#FFFFFF" d="M7.23,18.54c-0.87,4.17,0.04,8.24,1.62,11.8c0.39,0.89,0.85,1.78,1.34,2.6l0.76,1.19l0.87,1.15
  c1.2,1.51,2.53,2.96,3.98,4.31c2.88,2.73,6.05,5.21,9.38,7.49c3.32,2.28,6.77,4.39,10.32,6.28c1.76,0.97,3.57,1.85,5.39,2.68
  c0.9,0.46,1.81,0.79,2.72,1.19c0.91,0.38,1.85,0.68,2.76,1.05c3.72,1.3,7.58,2.25,11.49,2.79c1.96,0.26,3.93,0.39,5.9,0.4
  c1.96,0,3.93-0.14,5.77-0.58c1.8-0.39,3.48-1.26,5.02-2.52c1.49-1.27,2.79-2.91,3.68-4.84c-0.3,4.26-3.14,8.56-7.52,10.59
  c-2.11,0.99-4.31,1.56-6.52,1.93c-2.21,0.36-4.44,0.53-6.67,0.51c-4.45-0.04-8.88-0.75-13.15-1.95c-2.12-0.63-4.23-1.39-6.26-2.24
  c-2.01-0.87-3.98-1.81-5.91-2.84c-3.84-2.07-7.51-4.43-10.95-7.11c-3.44-2.68-6.67-5.67-9.48-9.1c-1.42-1.7-2.7-3.55-3.8-5.55
  l-0.78-1.52l-0.66-1.61c-0.38-1.08-0.7-2.15-0.93-3.25c-0.46-2.2-0.65-4.47-0.4-6.68C5.45,22.51,6.03,20.33,7.23,18.54z"/>
<g>
  <path fill="#FFFFFF" d="M4.12,123.05H0.49v-5.98h0.45v5.57h3.17V123.05z"/>
  <path fill="#FFFFFF" d="M10.19,123.05H9.71l-0.52-1.45H6.4l-0.52,1.45H5.39l2.2-5.98H8L10.19,123.05z M7.79,117.68l-1.25,3.52h2.5
    L7.79,117.68z"/>
  <path fill="#FFFFFF" d="M16.5,123.05h-0.45l-3.45-5.2v5.2h-0.45v-5.98h0.45l3.45,5.18v-5.18h0.45V123.05z"/>
  <path fill="#FFFFFF" d="M23.11,120.97c0,0.6-0.16,1.08-0.49,1.44c-0.41,0.46-0.94,0.69-1.57,0.69c-0.59,0-1.07-0.19-1.45-0.57
    c-0.26-0.26-0.43-0.55-0.5-0.85c-0.07-0.31-0.1-0.84-0.1-1.62c0-0.77,0.03-1.31,0.1-1.62c0.07-0.31,0.23-0.59,0.5-0.85
    c0.38-0.38,0.86-0.57,1.45-0.57c0.52,0,0.97,0.16,1.34,0.48s0.61,0.74,0.7,1.27h-0.45c-0.09-0.41-0.28-0.74-0.56-0.98
    c-0.28-0.24-0.63-0.36-1.03-0.36c-0.45,0-0.83,0.15-1.13,0.46c-0.2,0.2-0.33,0.44-0.38,0.73c-0.05,0.28-0.08,0.77-0.08,1.45
    s0.03,1.17,0.08,1.45s0.18,0.52,0.38,0.73c0.31,0.31,0.69,0.46,1.13,0.46c0.51,0,0.92-0.19,1.24-0.58c0.24-0.3,0.36-0.7,0.36-1.18
    v-0.54h-1.6V120h2.06V120.97z"/>
  <path fill="#FFFFFF" d="M29.62,121.12c0,0.58-0.19,1.06-0.57,1.43s-0.87,0.56-1.47,0.56s-1.09-0.19-1.47-0.56s-0.57-0.85-0.57-1.43
    v-4.04h0.45v3.98c0,0.5,0.15,0.9,0.44,1.2c0.29,0.3,0.68,0.45,1.16,0.45s0.87-0.15,1.16-0.45c0.29-0.3,0.44-0.7,0.44-1.2v-3.98
    h0.45V121.12z"/>
  <path fill="#FFFFFF" d="M36.28,123.05h-0.49l-0.52-1.45h-2.79l-0.52,1.45h-0.49l2.2-5.98h0.4L36.28,123.05z M33.88,117.68
    l-1.25,3.52h2.5L33.88,117.68z"/>
  <path fill="#FFFFFF" d="M42.01,120.97c0,0.6-0.16,1.08-0.49,1.44c-0.41,0.46-0.94,0.69-1.57,0.69c-0.59,0-1.07-0.19-1.45-0.57
    c-0.26-0.26-0.43-0.55-0.5-0.85c-0.07-0.31-0.1-0.84-0.1-1.62c0-0.77,0.03-1.31,0.1-1.62c0.07-0.31,0.23-0.59,0.5-0.85
    c0.38-0.38,0.86-0.57,1.45-0.57c0.52,0,0.97,0.16,1.34,0.48s0.61,0.74,0.7,1.27h-0.45c-0.09-0.41-0.28-0.74-0.56-0.98
    c-0.28-0.24-0.63-0.36-1.03-0.36c-0.45,0-0.83,0.15-1.13,0.46c-0.2,0.2-0.33,0.44-0.38,0.73c-0.05,0.28-0.08,0.77-0.08,1.45
    s0.03,1.17,0.08,1.45s0.18,0.52,0.38,0.73c0.31,0.31,0.69,0.46,1.13,0.46c0.51,0,0.92-0.19,1.24-0.58c0.24-0.3,0.36-0.7,0.36-1.18
    v-0.54h-1.6V120h2.06V120.97z"/>
  <path fill="#FFFFFF" d="M48.13,123.05h-3.63v-5.98h3.63v0.4h-3.17v2.36h2.7v0.4h-2.7v2.41h3.17V123.05z"/>
  <path fill="#FFFFFF" d="M57.31,121.36c-0.1,0.54-0.33,0.96-0.7,1.28c-0.36,0.31-0.81,0.47-1.33,0.47c-0.59,0-1.07-0.19-1.45-0.57
    c-0.26-0.26-0.43-0.55-0.5-0.85c-0.07-0.31-0.1-0.84-0.1-1.62c0-0.77,0.03-1.31,0.1-1.62c0.07-0.31,0.23-0.59,0.5-0.85
    c0.38-0.38,0.86-0.57,1.45-0.57c0.53,0,0.98,0.16,1.34,0.47c0.36,0.31,0.59,0.74,0.69,1.28h-0.46c-0.09-0.41-0.27-0.74-0.55-0.98
    c-0.28-0.24-0.62-0.36-1.02-0.36c-0.45,0-0.83,0.15-1.13,0.46c-0.2,0.2-0.33,0.44-0.38,0.73c-0.05,0.28-0.08,0.77-0.08,1.45
    s0.03,1.17,0.08,1.45s0.18,0.52,0.38,0.73c0.31,0.31,0.69,0.46,1.13,0.46c0.4,0,0.75-0.12,1.03-0.36c0.28-0.24,0.47-0.57,0.56-0.98
    H57.31z"/>
  <path fill="#FFFFFF" d="M63.39,123.05h-3.63v-5.98h3.63v0.4h-3.17v2.36h2.7v0.4h-2.7v2.41h3.17V123.05z"/>
  <path fill="#FFFFFF" d="M70.04,123.05h-0.45l-3.45-5.2v5.2h-0.45v-5.98h0.45l3.45,5.18v-5.18h0.45V123.05z"/>
  <path fill="#FFFFFF" d="M76.13,117.48h-1.79v5.57h-0.45v-5.57h-1.78v-0.4h4.02V117.48z"/>
  <path fill="#FFFFFF" d="M81.83,123.05H78.2v-5.98h3.63v0.4h-3.17v2.36h2.7v0.4h-2.7v2.41h3.17V123.05z"/>
  <path fill="#FFFFFF" d="M88.17,123.05h-0.53l-1.43-2.75h-1.65v2.75h-0.45v-5.98h2.27c0.5,0,0.92,0.14,1.23,0.42
    c0.32,0.28,0.48,0.68,0.48,1.18c0,0.44-0.12,0.8-0.37,1.08c-0.25,0.28-0.58,0.46-1.01,0.53L88.17,123.05z M87.3,119.6
    c0.24-0.2,0.36-0.5,0.36-0.91c0-0.4-0.12-0.71-0.36-0.91c-0.24-0.2-0.56-0.3-0.96-0.3h-1.76v2.42h1.76
    C86.74,119.9,87.06,119.8,87.3,119.6z"/>
</g>
</svg>
