<svg xmlns="http://www.w3.org/2000/svg" xmlns:xlink="http://www.w3.org/1999/xlink" version="1.1" id="Capa_1" x="0px" y="0px" viewBox="0 0 512 512" style="enable-background:new 0 0 512 512;" xml:space="preserve" width="50px" height="50px">
<g>
  <g>
    <path d="M279.344,104.33l-8.335-1.216c-4.893-0.703-9.111-3.779-11.294-8.203l-3.735-7.559l-3.735,7.559    c-2.183,4.424-6.401,7.5-11.294,8.203l-8.335,1.216l6.035,5.889c3.529,3.442,5.141,8.408,4.306,13.271l-1.421,8.32l7.456-3.926    c4.384-2.309,9.591-2.309,13.975,0l7.456,3.926l-1.421-8.32c-0.835-4.863,0.776-9.829,4.307-13.271L279.344,104.33z" fill="#FFFFFF"/>
  </g>
</g>
<g>
  <g>
    <path d="M375.979,0h-240c-41.353,0-75,33.647-75,75v91c0,24.814,20.186,45,45,45h300c24.814,0,45-20.186,45-45V75    C450.979,33.647,417.332,0,375.979,0z M322.057,104.594L299.895,126.2l5.229,30.498c2.098,12.206-10.765,21.599-21.768,15.806    l-27.378-14.399L228.6,172.504c-10.941,5.804-23.873-3.55-21.768-15.806l5.229-30.498L189.9,104.594    c-8.873-8.652-3.944-23.798,8.32-25.576l30.615-4.453l13.696-27.744c5.039-10.254,21.855-10.254,26.895,0l13.696,27.744    l30.615,4.453C326.001,80.796,330.931,95.942,322.057,104.594z" fill="#FFFFFF"/>
  </g>
</g>
<g>
  <g>
    <path d="M105.978,241c-16.936,0-32.405-5.856-44.975-15.363L60.979,226v123.695c0,18.867-7.764,37.456-21.299,51.006    c-12.034,12.065-11.342,31.208-0.015,42.598c12.252,11.585,30.37,11.596,42.612,0c24.803-25.792,38.701-57.801,38.701-93.604V241    H105.978z" fill="#FFFFFF"/>
  </g>
</g>
<g>
  <g>
    <path d="M360.979,349.696V241h-210v108.695c0,33.376-9.437,63.669-29.401,92.501C152.001,485.325,201.326,512,255.979,512    c54.662,0,103.997-26.686,134.418-69.825C370.133,413.026,360.979,382.633,360.979,349.696z M180.979,286c0-8.286,6.716-15,15-15    s15,6.714,15,15c0,8.284-6.716,15-15,15S180.979,294.284,180.979,286z M309.021,400.027C294.856,414.192,276.033,422,255.979,422    c-20.054,0-38.877-7.808-53.042-21.973c-5.845-5.874-5.845-15.366,0.015-21.226c5.859-5.83,15.366-5.845,21.226,0.015    c16.963,17.021,46.641,17.021,63.604,0c5.859-5.859,15.366-5.845,21.226-0.015C314.866,384.661,314.866,394.153,309.021,400.027z     M315.979,301c-8.284,0-15-6.716-15-15c0-8.286,6.716-15,15-15s15,6.714,15,15C330.979,294.284,324.263,301,315.979,301z" fill="#FFFFFF"/>
  </g>
</g>
<g>
  <g>
    <path d="M472.278,400.701c-14.429-14.429-21.299-35.717-21.299-112.006v-63.078c-12.574,9.518-28.052,15.383-45,15.383h-15    v108.695c0,36.015,14.039,67.967,38.687,93.604c12.277,11.609,30.399,11.578,42.612,0    C484.026,431.551,484.026,412.449,472.278,400.701z" fill="#FFFFFF"/>
  </g>
</g>
<g>
</g>
<g>
</g>
<g>
</g>
<g>
</g>
<g>
</g>
<g>
</g>
<g>
</g>
<g>
</g>
<g>
</g>
<g>
</g>
<g>
</g>
<g>
</g>
<g>
</g>
<g>
</g>
<g>
</g>
</svg>
