<svg version="1.0" id="Слой_1" xmlns="http://www.w3.org/2000/svg" xmlns:xlink="http://www.w3.org/1999/xlink" x="0px" y="0px"
	 viewBox="0 0 96.34 115.89" enable-background="new 0 0 96.34 115.89" xml:space="preserve" width="100px">
<g>
	<g>
		<path fill="#FFFFFF" d="M92.38,34.8c-3.22-5.15-12.89-10.31-28.35-10.95c-12.25-0.51-25.13,4.51-25.13,4.51
			c0-16.11,3.22-20.62,5.8-24.48c2.58-3.87,8.38-3.22,8.38-3.22C44.38-2.25,38.9,5.16,36,10.64c-2.84,5.37-4.51,20.62-4.51,20.62
			c-5.15,1.93-10.31,6.44-10.31,6.44c-9.02-7.73-5.8-18.04-5.8-18.04c-6.44,10.31,1.93,21.9,1.93,21.9s-6.44,5.8-5.8,12.89
			c0.82,9.07,7.73,10.31,7.73,10.31c-3.22-1.93-6.76-6.76-5.15-12.24c1.15-3.91,5.8-7.09,5.8-7.09C23.76,49.94,36,58.96,36,58.96
			s0,0,3.22,7.09c3.22,7.09,12.89,16.11,18.68,16.11s8.38-3.22,8.38-3.22s-2.58,1.29-6.44,0.64s-7.09-3.87-9.02-6.44
			c-3.83-5.1-5.15-9.66-5.15-9.66s16.43,8.05,33.5,3.87c8.51-2.09,9.66-11.6,9.66-11.6c-1.93,3.87-7.73,9.66-22.55,6.44
			S41.8,52.51,41.8,52.51c-2.58-7.09-1.93-18.04-1.93-18.04c3.87-2.58,21.9-5.15,32.86-3.87c10.95,1.29,17.39,5.8,18.68,10.31
			c1.29,4.51-2.9,9.99-2.9,9.99C93.66,47.68,95.6,39.95,92.38,34.8z M25.05,41.56c0,0,3.87-3.22,7.09-3.87l0.64,9.66L25.05,41.56z"
			/>
	</g>
	<g>
		<path fill="#FFFFFF" d="M4.06,110.04H2.72V92.41h1.34V110.04z"/>
		<path fill="#FFFFFF" d="M22.53,110.04h-1.34L11.01,94.71v15.33H9.67V92.41h1.34l10.18,15.28V92.41h1.34V110.04z"/>
		<path fill="#FFFFFF" d="M38.82,105.31c0,1.49-0.53,2.67-1.6,3.55c-1.06,0.88-2.51,1.32-4.35,1.32c-1.29,0-2.38-0.18-3.28-0.54
			s-1.76-0.96-2.59-1.78l0.94-0.94c0.78,0.78,1.54,1.32,2.28,1.62c0.74,0.3,1.65,0.46,2.72,0.46c1.4,0,2.51-0.32,3.32-0.97
			c0.81-0.64,1.21-1.54,1.21-2.68c0-1.11-0.32-1.93-0.97-2.48c-0.3-0.26-0.62-0.46-0.95-0.58c-0.34-0.12-0.87-0.24-1.6-0.36
			l-2.06-0.32c-1.35-0.2-2.4-0.62-3.15-1.26c-0.92-0.78-1.39-1.87-1.39-3.27c0-1.49,0.49-2.66,1.47-3.53c0.98-0.87,2.32-1.3,4-1.3
			c1.06,0,1.97,0.15,2.75,0.45c0.78,0.3,1.55,0.78,2.33,1.46l-0.87,0.87c-1.14-1.09-2.57-1.63-4.29-1.63
			c-1.29,0-2.29,0.32-3.01,0.97s-1.08,1.54-1.08,2.67c0,1.06,0.3,1.83,0.89,2.33c0.61,0.51,1.45,0.85,2.53,1.02l2.06,0.32
			c0.81,0.12,1.43,0.26,1.87,0.43c0.44,0.17,0.86,0.43,1.28,0.78C38.32,102.8,38.82,103.93,38.82,105.31z"/>
		<path fill="#FFFFFF" d="M44.75,110.04h-1.34V92.41h1.34V110.04z"/>
		<path fill="#FFFFFF" d="M61.99,103.9c0,1.77-0.48,3.19-1.44,4.26c-1.22,1.35-2.77,2.03-4.63,2.03c-1.73,0-3.16-0.56-4.28-1.68
			c-0.78-0.78-1.26-1.61-1.46-2.51c-0.2-0.9-0.3-2.49-0.3-4.77s0.1-3.87,0.3-4.77c0.2-0.9,0.69-1.74,1.46-2.51
			c1.12-1.12,2.55-1.68,4.28-1.68c1.54,0,2.86,0.47,3.96,1.41c1.11,0.94,1.79,2.19,2.06,3.74H60.6c-0.26-1.22-0.81-2.19-1.65-2.9
			c-0.83-0.71-1.84-1.06-3.03-1.06c-1.32,0-2.44,0.45-3.34,1.36c-0.59,0.59-0.97,1.31-1.13,2.14c-0.16,0.83-0.24,2.26-0.24,4.27
			s0.08,3.44,0.24,4.27c0.16,0.83,0.53,1.55,1.13,2.14c0.91,0.91,2.02,1.36,3.34,1.36c1.5,0,2.72-0.57,3.67-1.71
			c0.71-0.89,1.06-2.06,1.06-3.49v-1.58h-4.73v-1.19h6.07V103.9z"/>
		<path fill="#FFFFFF" d="M78.87,110.04h-1.34v-8.3h-9.19v8.3H67V92.41h1.34v8.15h9.19v-8.15h1.34V110.04z"/>
		<path fill="#FFFFFF" d="M94.97,93.6H89.7v16.45h-1.34V93.6h-5.25v-1.19h11.86V93.6z"/>
	</g>
</g>
</svg>
