<?xml version="1.0" encoding="utf-8"?>
<!-- Generator: Adobe Illustrator 22.1.0, SVG Export Plug-In . SVG Version: 6.00 Build 0)  -->
<svg version="1.1" id="Calque_1" xmlns="http://www.w3.org/2000/svg" xmlns:xlink="http://www.w3.org/1999/xlink" x="0px" y="0px"
    viewBox="0 0 1315 780" style="enable-background:new 0 0 1315 780;" xml:space="preserve">
<style type="text/css">
  .st0{fill:#FFFFFF;}
</style>
<g>
  <g>
    <path class="st0" d="M564.6,228c0.4-0.6,0.6-1.4,0.7-2.1l41.1-123.8c0.9-2.7-0.6-5.6-3.2-6.5c-2.7-0.9-5.6,0.6-6.5,3.2
      l-36.5,109.9l-66.5-203c-0.9-2.7-3.8-4.2-6.5-3.3c-2.7,0.9-4.2,3.8-3.3,6.5l70.8,216.2l-7.8,23.4L467.4,5.8
      c-0.7-2.1-2.7-3.5-4.9-3.5h-26.8c-1.6,0-3.2,0.8-4.2,2.1c-1,1.3-1.2,3-0.7,4.6l97.7,297c0.2,1.3,0.9,2.5,1.9,3.3
      c0.9,0.8,2.1,1.2,3.3,1.2c0.5,0,1.1-0.1,1.6-0.3c2.1-0.7,3.4-2.6,3.5-4.6L564.6,228z M458.8,12.5L541.5,265l-7.9,23.8L442.8,12.5
      H458.8z"/>
    <path class="st0" d="M884.1,9c0.5-1.6,0.2-3.3-0.7-4.6c-1-1.3-2.5-2.1-4.2-2.1h-26.8c-2.2,0-4.2,1.4-4.9,3.5l-79.7,243.1
      l-7.8-23.4L831,9c0.9-2.7-0.6-5.6-3.3-6.5c-2.7-0.9-5.6,0.6-6.5,3.3l-66.6,203.3L692.4,21.4c-0.3-0.9-0.8-1.6-1.4-2.2
      c-0.5-0.5-1.1-0.8-1.8-1.1c-0.7-0.2-1.4-0.3-2-0.2h-29.3c-2.2,0-4.2,1.4-4.9,3.5l-93.8,282.2c-0.5,1.6-0.3,3.3,0.7,4.6
      c1,1.3,2.5,2.1,4.2,2.1h29.7c2.2,0,4.2-1.4,4.9-3.5l62.2-187.2l48.6,146.1c0.7,2.1,2.7,3.5,4.9,3.5c0.5,0,1.1-0.1,1.6-0.3
      c2.7-0.9,4.1-3.8,3.2-6.5l-52.9-159.1l7.4-22.2L749.2,307c0.7,2.1,2.7,3.5,4.9,3.5h27.2c0.5,0,1-0.1,1.5-0.2c0.1,0,0.1,0,0.2,0
      c0.1,0,0.1-0.1,0.2-0.1c0.2-0.1,0.4-0.1,0.5-0.2c0.1-0.1,0.3-0.1,0.4-0.2c0.1-0.1,0.3-0.2,0.4-0.3c0.1-0.1,0.3-0.2,0.4-0.3
      c0.1-0.1,0.2-0.2,0.3-0.4c0.1-0.1,0.2-0.2,0.3-0.4c0.1-0.1,0.2-0.3,0.3-0.4c0.1-0.1,0.2-0.3,0.2-0.4c0.1-0.2,0.1-0.3,0.2-0.5
      c0,0,0,0,0,0c0,0,0,0,0-0.1l0.1-0.2c0,0,0,0,0,0L884.1,9z M856.2,12.5h16l-90.9,276.5l-7.9-23.8L856.2,12.5z M590,300.1h-18.9
      l90.3-271.9h18.9L590,300.1z M678.9,65l8.5-25.7l86.7,261h-16.4L678.9,65z"/>
  </g>
  <g>
    <g>
      <path class="st0" d="M92,457.5L51.6,574L16.4,460.6c-1-3.2-3.5-5.1-6.7-5.1H2.4c-0.9,0-1.7,0.4-2.2,1.1c-0.5,0.7-0.7,1.6-0.4,2.5
        l44.4,140.1l0.4,1.4c0.3,1.2,1.4,2,2.7,2h7.6c1.2,0,2.2-0.8,2.6-1.9l48.9-141.3c0.7-2-0.8-4-2.8-4h-8.7
        C93.5,455.5,92.4,456.3,92,457.5z"/>
      <path class="st0" d="M194.1,455.5h-6.7c-3.4,0-6,1.9-6.9,5L145.2,574l-29.7-83.3c-0.4-1.1-1.5-1.9-2.6-1.9
        c-1.2,0-2.2,0.8-2.6,1.9l-4.6,13.3c-0.2,0.6-0.2,1.2,0,1.8l32.9,93.5l0.5,1.4c0.4,1.1,1.4,1.9,2.6,1.9h7.7c1.2,0,2.3-0.8,2.7-1.9
        l44.8-141.6c0.3-0.8,0.1-1.8-0.4-2.5C195.8,455.9,195,455.5,194.1,455.5z"/>
    </g>
    <g>
      <path class="st0" d="M1223,600.6l40.4-116.5l35.2,113.4c1,3.2,3.5,5.1,6.7,5.1h7.2c0.9,0,1.7-0.4,2.2-1.1
        c0.5-0.7,0.7-1.6,0.4-2.5l-44.4-140.1l-0.4-1.4c-0.3-1.2-1.4-2-2.7-2h-7.6c-1.2,0-2.2,0.8-2.6,1.9l-48.9,141.3
        c-0.7,2,0.8,4,2.8,4h8.7C1221.5,602.7,1222.6,601.9,1223,600.6z"/>
      <path class="st0" d="M1120.9,602.7h6.7c3.4,0,6-1.9,6.9-5l35.3-113.5l29.7,83.3c0.4,1.1,1.5,1.9,2.6,1.9c1.2,0,2.2-0.8,2.6-1.9
        l4.6-13.3c0.2-0.6,0.2-1.2,0-1.8l-32.9-93.5l-0.5-1.4c-0.4-1.1-1.4-1.9-2.6-1.9h-7.7c-1.2,0-2.3,0.8-2.7,1.9l-44.8,141.6
        c-0.3,0.8-0.1,1.8,0.4,2.5C1119.2,602.3,1120,602.7,1120.9,602.7z"/>
    </g>
    <path class="st0" d="M297,455.5h-9.4c-1.5,0-2.8,1.3-2.8,2.8v141.6c0,1.5,1.3,2.8,2.8,2.8h9.4c1.5,0,2.8-1.3,2.8-2.8V458.3
      C299.8,456.8,298.5,455.5,297,455.5z"/>
    <path class="st0" d="M625.7,455.5h-9c-1.6,0-3,1.3-3,3v141.4c0,1.5,1.2,2.8,2.8,2.8h9.4c1.5,0,2.8-1.2,2.8-2.8V458.5
      C628.7,456.8,627.4,455.5,625.7,455.5z"/>
    <path class="st0" d="M778.1,472.4c-6.8,2.8-12.7,6.8-17.5,12c-4.8,5.1-8.7,11.5-11.5,19.1c-2.8,7.5-4.1,16.2-4.1,25.7
      c0,9.7,1.4,18.4,4.1,26c2.2,5.9,5,11.2,8.5,15.7c0.6,0.8,0.8,1.9,0.5,2.9l-3.2,9.4c-0.8,2.2-3.6,2.8-5.2,1.1
      c-0.2-0.2-0.3-0.4-0.5-0.6c-6.1-6.5-10.9-14.5-14.3-23.8c-3.4-9.2-5.1-19.6-5.1-30.8c0-11,1.7-21.2,5.1-30.4
      c3.4-9.2,8.3-17.3,14.6-23.9c6.3-6.6,13.9-11.8,22.6-15.5c8.7-3.6,18.4-5.5,28.7-5.5c9.7,0,18.5,1.5,26.2,4.6
      c7.6,3,14.7,7.3,21.2,13l1.4,1.2c1.1,0.9,1.3,2.5,0.5,3.7l-2.5,3.6c-0.7,1.4-2.7,2.8-5.5,2.8c-1.9,0-3.5-1-4.9-2
      c-0.9-0.7-2.2-1.6-3.6-2.6c-1.5-1-3.3-2.2-5.2-3.3c-2-1.1-4.3-2.2-6.9-3.2c-2.7-1-5.8-1.8-9.2-2.5c-3.4-0.7-7.2-1-11.4-1
      C792.5,468.1,784.9,469.5,778.1,472.4z"/>
    <path class="st0" d="M852.5,582.1l-1.4,1.4c-3.1,3.1-6.4,5.9-9.9,8.4c-3.6,2.6-7.6,4.8-11.9,6.6c-4.2,1.8-8.9,3.2-14,4.3
      c-5,1-10.6,1.5-16.5,1.5c-9.9,0-19.2-1.8-27.6-5.3c-1.1-0.5-2.2-1-3.3-1.5c-1.4-0.7-2.1-2.3-1.6-3.8l2.7-7.9
      c0.6-1.8,2.7-2.6,4.4-1.7c1.3,0.7,2.7,1.3,4.1,1.9c6.5,2.8,13.8,4.1,21.5,4.1c4.9,0,9.5-0.3,13.4-1c3.9-0.7,7.4-1.7,10.5-2.9
      c3.1-1.3,6.1-2.9,8.8-4.8c2.8-2,5.6-4.2,8.3-6.7c2.6-2.5,6.2-2.1,8.4-0.6c0.1,0.1,0.3,0.2,0.4,0.4l3.7,3.9
      C853.6,579.3,853.6,581,852.5,582.1z"/>
    <path class="st0" d="M501.4,534.8l-0.2-0.2c-3.4-3.2-7.7-5.8-12.7-7.8l-0.4-0.2c-0.1,0-0.2-0.1-0.3-0.1c3.5-2.2,6.5-4.7,9.1-7.6
      c3.1-3.6,5.5-7.6,7.1-11.8c1.6-4.1,2.3-8.6,2.2-13.3c-0.2-11.9-4.5-21.4-12.7-28.1c-8.2-6.7-20.5-10.1-36.5-10.1h-36.4
      c-3.2,0-5.7,2.6-5.7,5.7v68.1c0,3.2,2.6,5.7,5.7,5.7h41.7c5.5,0,10.7,0.7,15.3,1.9c4.2,1.2,7.9,3.1,10.9,5.4c2.8,2.2,5,4.9,6.6,8
      c1.5,3,2.2,6.6,2.2,10.6c0,9.1-2.8,15.8-8.5,20.4c-5.9,4.8-14.9,7.2-26.6,7.2h-32.3v-35.5c0-1.8-1.4-3.2-3.2-3.2h-8.6
      c-1.8,0-3.2,1.4-3.2,3.2v44c0,3.1,2.5,5.5,5.5,5.5h41.8c7.7,0,14.5-0.9,20.5-2.6c6.1-1.8,11.5-4.5,15.9-8c4.4-3.5,7.9-8,10.2-13.2
      c2.3-5.2,3.4-11.2,3.4-17.6c0-5.4-1-10.4-2.8-14.8C507.6,541.9,504.9,538,501.4,534.8z M473.7,518.9c-4.2,1.6-9.6,2.4-16,2.4
      h-25.5c-1.2,0-2.3-1-2.3-2.2v-47.5c0-1.2,1-2.3,2.3-2.3H457c12.1,0,21,2.3,26.5,6.9c5.3,4.3,7.8,10.6,7.8,19
      c0,3.1-0.6,6.1-1.7,9.2c-1.2,3-3,5.8-5.6,8.2C481.4,515.2,478.1,517.2,473.7,518.9z"/>
    <path class="st0" d="M1054.9,498.3c-3.3-9.2-8.1-17.2-14.2-23.8c-6.2-6.6-13.6-11.7-22-15.2c-8.5-3.5-18-5.3-28.1-5.3
      c-10,0-19.4,1.8-27.9,5.4c-8.4,3.5-15.8,8.7-22,15.3c-6.1,6.6-10.9,14.6-14.2,23.8c-3.3,9.2-5,19.5-5,30.6c0,11.2,1.7,21.6,5,30.7
      c3.3,9.2,8.1,17.2,14.2,23.7c6.2,6.6,13.6,11.7,22.1,15.2c8.4,3.5,17.8,5.3,27.8,5.3c10.2,0,19.6-1.8,28.1-5.3
      c8.6-3.6,16-8.7,22.1-15.3c6.1-6.6,10.9-14.6,14.1-23.7c3.3-9.1,5-19.4,5-30.8C1059.9,517.8,1058.2,507.5,1054.9,498.3
      L1054.9,498.3z M1044.6,529c0,9.7-1.3,18.4-4,26c-2.7,7.5-6.4,13.9-11,18.9c-4.7,5.1-10.4,9-17,11.7c-6.5,2.7-13.9,4.1-22.1,4.1
      c-7.9,0-15.3-1.4-21.9-4.1c-6.5-2.7-12.2-6.7-16.9-11.7c-4.7-5.1-8.5-11.5-11.1-19c-2.7-7.5-4.1-16.3-4.1-25.9
      c0-9.6,1.4-18.4,4.1-25.9c2.7-7.5,6.4-13.9,11.1-19.1c4.7-5.1,10.4-9.1,16.9-11.8c6.6-2.7,14-4.1,21.9-4.1
      c8.1,0,15.5,1.4,22.1,4.1c6.5,2.7,12.2,6.7,16.9,11.8c4.7,5.2,8.4,11.6,11,19.1C1043.3,510.6,1044.6,519.3,1044.6,529z"/>
  </g>
  <g>
    <path class="st0" d="M246.8,710.7h10c6.7,0,12,2.3,16,6.8s6,10.8,6,18.7c0,8.1-2,14.4-6.1,18.8c-4.1,4.4-9.3,6.7-15.7,6.7h-10.3
      V710.7z M252.7,756.5h4.2c4.8,0,8.7-1.8,11.5-5.4c2.8-3.6,4.2-8.6,4.2-14.9c0-6.3-1.4-11.3-4.2-14.9c-2.8-3.6-6.7-5.4-11.5-5.4
      h-4.2V756.5z"/>
    <path class="st0" d="M321.5,761.7h-5.6v-32.8h-11.1v-4.9h16.7V761.7z M318.7,709.8c1.1,0,2,0.4,2.7,1.1c0.7,0.8,1.1,1.7,1.1,2.7
      c0,1.1-0.4,2-1.1,2.8c-0.7,0.7-1.6,1.1-2.7,1.1c-1,0-1.9-0.4-2.6-1.2c-0.8-0.8-1.1-1.7-1.1-2.7c0-1,0.4-1.9,1.1-2.7
      C316.9,710.2,317.7,709.8,318.7,709.8z"/>
    <path class="st0" d="M367.1,747.5c-3.5,1.7-5.3,3.2-5.3,4.5c0,0.7,0.4,1.3,1.2,1.8c0.8,0.5,1.9,0.7,3.3,0.7l12.7-0.4
      c3,0,5.4,0.7,7,2.2c1.7,1.5,2.5,3.6,2.5,6.2c0,4.3-1.9,7.7-5.7,10.2c-3.8,2.5-8.2,3.8-13.3,3.8c-4.2,0-7.6-0.9-10.2-2.6
      c-2.6-1.7-4-4-4-6.8c0-3,2-5.5,6.1-7.6c-3.4-1.6-5.1-3.5-5.1-5.9c0-2.6,2.2-5.1,6.6-7.4c-2-1.2-3.6-2.8-4.7-4.8
      c-1.1-2-1.6-4-1.6-6.2c0-3.5,1.2-6.4,3.6-8.7c2.4-2.3,5.4-3.4,9-3.4c2.6,0,4.9,0.5,7,1.6l11.2-1.7v5.5h-7.2
      c1.1,1.9,1.6,4.1,1.6,6.7c0,3.4-1.2,6.3-3.6,8.7c-2.4,2.4-5.4,3.5-9.1,3.5C368.6,747.6,367.8,747.5,367.1,747.5z M369.6,772.2
      c3.7,0,6.9-0.8,9.5-2.5c2.6-1.6,3.9-3.7,3.9-6.1c0-2.5-1.9-3.8-5.6-3.8c-1.2,0-3.3,0.1-6.4,0.2c-1.9,0.1-3.4,0.1-4.5,0.1
      c-0.5,0-1.4,0.4-2.5,1.3c-1.1,0.9-2,1.7-2.6,2.6c-0.6,0.9-0.9,1.8-0.9,2.7c0,1.5,0.8,2.7,2.5,3.8
      C364.7,771.7,366.9,772.2,369.6,772.2z M369.3,743.2c2.1,0,3.8-0.7,5.1-2.1c1.3-1.4,2-3.3,2-5.6c0-2.4-0.6-4.3-1.9-5.7
      c-1.3-1.4-3-2.1-5.1-2.1c-2,0-3.7,0.7-5,2.1c-1.4,1.4-2,3.3-2,5.6c0,2.3,0.7,4.1,2,5.6C365.7,742.5,367.3,743.2,369.3,743.2z"/>
    <path class="st0" d="M431.2,761.7h-5.6v-32.8h-11.1v-4.9h16.7V761.7z M428.4,709.8c1.1,0,2,0.4,2.7,1.1c0.7,0.8,1.1,1.7,1.1,2.7
      c0,1.1-0.4,2-1.1,2.8c-0.7,0.7-1.6,1.1-2.7,1.1c-1,0-1.9-0.4-2.6-1.2c-0.8-0.8-1.1-1.7-1.1-2.7c0-1,0.4-1.9,1.1-2.7
      C426.6,710.2,427.4,709.8,428.4,709.8z"/>
    <path class="st0" d="M495.8,760c-3.8,1.7-7.5,2.6-11.2,2.6c-6.7,0-10.1-3.6-10.1-10.7v-23h-7.2v-4.9h7.2v-10.3h5.5v10.3h12.8v4.9
      H480v21.5c0,2.3,0.5,4.1,1.5,5.3c1,1.3,2.4,1.9,4.1,1.9c3.1,0,6.1-0.7,9.1-2.1L495.8,760z"/>
    <path class="st0" d="M551.2,761.7h-5.6c-0.5-1.5-0.7-3.5-0.7-6.1c-3.2,4.7-7.6,7-13.1,7c-2.8,0-5.3-1-7.4-3
      c-2.1-2-3.2-4.5-3.2-7.7c0-1.9,0.4-3.5,1.1-4.9c0.7-1.4,1.8-2.6,3.3-3.6s3.2-1.7,5.3-2.3c2.1-0.6,4.5-1,7.4-1.2l6.3-0.5v-1.8
      c0-6.5-3-9.7-9-9.7c-1.4,0-3.2,0.3-5.4,0.9c-2.2,0.6-4.1,1.3-5.6,2.2l-1.5-4c5.1-2.6,9.9-3.9,14.3-3.9c8.6,0,12.9,4.5,12.9,13.6
      V753C550.3,756.2,550.6,759.1,551.2,761.7z M544.6,750.5v-6.8c-5.1,0.5-8.6,0.9-10.5,1.3s-3.5,1.1-4.9,2.2
      c-1.4,1.1-2.1,2.6-2.1,4.4c0,1.7,0.6,3,1.8,4.1c1.2,1,2.7,1.6,4.5,1.6c2,0,4-0.6,6-1.8C541.4,754.3,543.1,752.6,544.6,750.5z"/>
    <path class="st0" d="M602.4,761.7H587v-46.1h-9.8v-4.9h15.5v46.1h9.8V761.7z"/>
    <g>
      <path class="st0" d="M750.5,762.7h-6.3l-5.7-18h-16.9l-5.8,18h-6.2l16.8-51.6h7.2L750.5,762.7z M736.8,739.4l-6.8-21.3l-6.7,21.3
        H736.8z"/>
      <path class="st0" d="M793.3,748.3c-3.6,1.7-5.3,3.3-5.3,4.6c0,0.7,0.4,1.3,1.2,1.8c0.8,0.5,1.9,0.7,3.3,0.7l12.8-0.4
        c3,0,5.4,0.7,7.1,2.2c1.7,1.5,2.5,3.6,2.5,6.3c0,4.3-1.9,7.7-5.8,10.3c-3.8,2.6-8.3,3.8-13.5,3.8c-4.2,0-7.7-0.9-10.3-2.6
        c-2.7-1.8-4-4-4-6.9c0-3,2.1-5.6,6.2-7.7c-3.4-1.6-5.2-3.6-5.2-5.9c0-2.7,2.2-5.2,6.6-7.5c-2-1.2-3.6-2.8-4.7-4.8
        c-1.1-2-1.6-4.1-1.6-6.2c0-3.6,1.2-6.5,3.7-8.8c2.4-2.3,5.5-3.5,9.1-3.5c2.6,0,5,0.5,7.1,1.6l11.3-1.7v5.6h-7.3
        c1.1,1.9,1.6,4.2,1.6,6.8c0,3.5-1.2,6.4-3.6,8.8c-2.4,2.4-5.5,3.6-9.2,3.6C794.7,748.4,794,748.4,793.3,748.3z M795.7,773.3
        c3.7,0,6.9-0.8,9.6-2.5c2.6-1.7,4-3.7,4-6.2c0-2.5-1.9-3.8-5.6-3.8c-1.2,0-3.4,0.1-6.4,0.2c-1.9,0.1-3.4,0.1-4.5,0.1
        c-0.5,0-1.4,0.4-2.5,1.3c-1.1,0.9-2,1.8-2.6,2.6c-0.6,0.9-0.9,1.8-0.9,2.8c0,1.5,0.8,2.8,2.5,3.8
        C790.9,772.8,793,773.3,795.7,773.3z M795.5,744c2.1,0,3.8-0.7,5.1-2.2c1.3-1.4,2-3.3,2-5.7c0-2.5-0.6-4.4-1.9-5.8
        c-1.3-1.4-3-2.1-5.2-2.1c-2,0-3.7,0.7-5.1,2.2c-1.4,1.4-2.1,3.3-2.1,5.7c0,2.3,0.7,4.2,2.1,5.6C791.8,743.2,793.5,744,795.5,744z
        "/>
      <path class="st0" d="M879.1,743.8h-26.1c0,4.3,1.2,7.9,3.7,10.7c2.5,2.8,5.6,4.2,9.2,4.2c3.5,0,7-0.6,10.7-1.9l1,4.6
        c-3.4,1.5-7.3,2.3-11.8,2.3c-5.7,0-10.2-1.8-13.7-5.4c-3.5-3.6-5.2-8.5-5.2-14.7c0-6,1.6-10.9,4.7-14.4c3.1-3.6,7.1-5.4,12-5.4
        c4.4,0,8,1.7,11,5c2.9,3.3,4.4,7.8,4.4,13.3V743.8z M872.8,739.2c0-3-0.9-5.5-2.8-7.5c-1.9-2-3.9-3.1-6.2-3.1
        c-2.9,0-5.4,1-7.3,2.9c-1.9,1.9-3,4.5-3.2,7.6H872.8z"/>
      <path class="st0" d="M940.8,762.7h-5.7v-24.4c0-3.4-0.5-5.8-1.6-7.4c-1.1-1.5-2.8-2.3-5.1-2.3c-3.5,0-7.2,2.2-11.2,6.5v27.5h-5.7
        v-38.1h5.7v5.6c4.1-4.3,8.4-6.5,12.9-6.5c7.1,0,10.7,4.3,10.7,12.9V762.7z"/>
      <path class="st0" d="M1003.5,761.4c-3.3,1.5-7,2.3-10.9,2.3c-6,0-10.8-1.8-14.3-5.5c-3.6-3.6-5.4-8.5-5.4-14.5s1.8-10.9,5.4-14.5
        c3.6-3.6,8.3-5.5,14.2-5.5c3.8,0,7.5,0.7,10.9,2l-1.5,4.7c-3.5-1.2-6.6-1.8-9.4-1.8c-4.2,0-7.5,1.4-10,4.1
        c-2.4,2.7-3.7,6.4-3.7,11c0,4.2,1.3,7.8,3.8,10.7c2.5,2.9,5.8,4.3,9.9,4.3c3.2,0,6.5-0.6,9.9-1.9L1003.5,761.4z"/>
      <path class="st0" d="M1068.2,724.6l-14.4,38.1c-2.1,5.6-4.2,9.5-6.2,11.7c-2.1,2.2-4.4,3.3-7,3.3c-2.3,0-4.7-0.4-6.9-1.3l1-4.6
        c1.8,0.6,3.5,0.9,5,0.9c2,0,3.7-0.8,5-2.4c1.3-1.6,2.6-4.2,4-7.8l-14.3-38h6.2l10.8,30.4l10.8-30.4H1068.2z"/>
    </g>
  </g>
</g>
</svg>
